<svg width="108" height="28" viewBox="0 0 108 28" fill="none" xmlns="http://www.w3.org/2000/svg">
<path d="M41.1318 9.00586L38.5205 19H36.7295L35.0615 13.0117C35.0205 12.8659 34.9749 12.6927 34.9248 12.4922C34.8747 12.2917 34.8245 12.0866 34.7744 11.877C34.7288 11.6673 34.6878 11.4759 34.6514 11.3027C34.6195 11.125 34.5967 10.9883 34.583 10.8926C34.5739 10.9883 34.5534 11.1227 34.5215 11.2959C34.4896 11.4691 34.4508 11.6605 34.4053 11.8701C34.3643 12.0752 34.3187 12.2803 34.2686 12.4854C34.2184 12.6859 34.1729 12.8636 34.1318 13.0186L32.4912 19H30.707L28.1025 9.00586H29.75L31.1924 14.8643C31.238 15.0511 31.2835 15.2539 31.3291 15.4727C31.3792 15.6868 31.4248 15.9033 31.4658 16.1221C31.5114 16.3408 31.5524 16.555 31.5889 16.7646C31.6253 16.9697 31.6549 17.1566 31.6777 17.3252C31.7005 17.152 31.7301 16.9606 31.7666 16.751C31.8031 16.5368 31.8418 16.3203 31.8828 16.1016C31.9284 15.8783 31.974 15.6641 32.0195 15.459C32.0697 15.2539 32.1198 15.0693 32.1699 14.9053L33.7969 9.00586H35.3965L37.0576 14.9258C37.1077 15.0944 37.1556 15.2835 37.2012 15.4932C37.2513 15.7028 37.2992 15.917 37.3447 16.1357C37.3903 16.3545 37.4313 16.5664 37.4678 16.7715C37.5042 16.9766 37.5339 17.1611 37.5566 17.3252C37.5885 17.1019 37.6296 16.8467 37.6797 16.5596C37.7298 16.2725 37.7868 15.9808 37.8506 15.6846C37.9144 15.3883 37.9782 15.1149 38.042 14.8643L39.4775 9.00586H41.1318ZM43.9893 8.36328V11.0361C43.9893 11.3141 43.9801 11.5853 43.9619 11.8496C43.9482 12.1139 43.9323 12.319 43.9141 12.4648H44.0029C44.1624 12.2005 44.3584 11.984 44.5908 11.8154C44.8232 11.6423 45.083 11.5124 45.3701 11.4258C45.6618 11.3392 45.9717 11.2959 46.2998 11.2959C46.8786 11.2959 47.3708 11.3939 47.7764 11.5898C48.182 11.7812 48.4919 12.0798 48.7061 12.4854C48.9248 12.891 49.0342 13.4173 49.0342 14.0645V19H47.4277V14.3652C47.4277 13.7773 47.307 13.3376 47.0654 13.0459C46.8239 12.7497 46.4502 12.6016 45.9443 12.6016C45.4567 12.6016 45.0693 12.7041 44.7822 12.9092C44.4997 13.1097 44.2969 13.4082 44.1738 13.8047C44.0508 14.1966 43.9893 14.6751 43.9893 15.2402V19H42.3828V8.36328H43.9893ZM54.25 11.2891C55.207 11.2891 55.9294 11.501 56.417 11.9248C56.9092 12.3486 57.1553 13.0094 57.1553 13.9072V19H56.0137L55.7061 17.9268H55.6514C55.4372 18.2002 55.2161 18.4258 54.9883 18.6035C54.7604 18.7812 54.4961 18.9134 54.1953 19C53.8991 19.0911 53.5368 19.1367 53.1084 19.1367C52.6572 19.1367 52.2539 19.0547 51.8984 18.8906C51.543 18.722 51.2627 18.4668 51.0576 18.125C50.8525 17.7832 50.75 17.3503 50.75 16.8262C50.75 16.0469 51.0394 15.4613 51.6182 15.0693C52.2015 14.6774 53.0811 14.4609 54.2568 14.4199L55.5693 14.3721V13.9756C55.5693 13.4515 55.4463 13.0778 55.2002 12.8545C54.9587 12.6312 54.6169 12.5195 54.1748 12.5195C53.7965 12.5195 53.4297 12.5742 53.0742 12.6836C52.7188 12.793 52.3724 12.9274 52.0352 13.0869L51.5156 11.9521C51.8848 11.7562 52.304 11.5967 52.7734 11.4736C53.2474 11.3506 53.7396 11.2891 54.25 11.2891ZM55.5625 15.3838L54.585 15.418C53.7829 15.4453 53.2201 15.582 52.8965 15.8281C52.5729 16.0742 52.4111 16.4115 52.4111 16.8398C52.4111 17.2135 52.5228 17.487 52.7461 17.6602C52.9694 17.8288 53.2633 17.9131 53.6279 17.9131C54.1839 17.9131 54.6442 17.7559 55.0088 17.4414C55.3779 17.1224 55.5625 16.6553 55.5625 16.04V15.3838ZM62.2207 17.8379C62.4303 17.8379 62.6377 17.8197 62.8428 17.7832C63.0479 17.7422 63.2347 17.6943 63.4033 17.6396V18.8564C63.2256 18.9339 62.9954 19 62.7129 19.0547C62.4303 19.1094 62.1364 19.1367 61.8311 19.1367C61.4027 19.1367 61.0176 19.0661 60.6758 18.9248C60.334 18.779 60.0628 18.5306 59.8623 18.1797C59.6618 17.8288 59.5615 17.3434 59.5615 16.7236V12.6562H58.5293V11.9385L59.6367 11.3711L60.1631 9.75098H61.1748V11.4326H63.3418V12.6562H61.1748V16.7031C61.1748 17.0859 61.2705 17.3708 61.4619 17.5576C61.6533 17.7445 61.9062 17.8379 62.2207 17.8379ZM70.0273 16.8398C70.0273 17.3366 69.9066 17.7559 69.665 18.0977C69.4235 18.4395 69.0703 18.6992 68.6055 18.877C68.1452 19.0501 67.5801 19.1367 66.9102 19.1367C66.3815 19.1367 65.9258 19.098 65.543 19.0205C65.1647 18.9476 64.807 18.8337 64.4697 18.6787V17.291C64.8298 17.4596 65.2331 17.6055 65.6797 17.7285C66.1309 17.8516 66.557 17.9131 66.958 17.9131C67.4867 17.9131 67.8672 17.8311 68.0996 17.667C68.332 17.4984 68.4482 17.2751 68.4482 16.9971C68.4482 16.833 68.4004 16.6872 68.3047 16.5596C68.2135 16.4274 68.0404 16.293 67.7852 16.1562C67.5345 16.015 67.1654 15.8464 66.6777 15.6504C66.1992 15.459 65.7959 15.2676 65.4678 15.0762C65.1396 14.8848 64.8913 14.6546 64.7227 14.3857C64.554 14.1123 64.4697 13.7637 64.4697 13.3398C64.4697 12.6699 64.734 12.1618 65.2627 11.8154C65.7959 11.4645 66.5 11.2891 67.375 11.2891C67.8398 11.2891 68.2773 11.3369 68.6875 11.4326C69.1022 11.5238 69.5078 11.6582 69.9043 11.8359L69.3984 13.0459C69.0566 12.8955 68.7126 12.7725 68.3662 12.6768C68.0244 12.5765 67.6758 12.5264 67.3203 12.5264C66.9056 12.5264 66.5889 12.5902 66.3701 12.7178C66.1559 12.8454 66.0488 13.0277 66.0488 13.2646C66.0488 13.4424 66.1012 13.5928 66.2061 13.7158C66.3109 13.8389 66.4909 13.9619 66.7461 14.085C67.0059 14.208 67.3659 14.3607 67.8262 14.543C68.2773 14.7161 68.667 14.8984 68.9951 15.0898C69.3278 15.2767 69.583 15.5068 69.7607 15.7803C69.9385 16.0537 70.0273 16.4069 70.0273 16.8398ZM78.1211 19L77.1436 16.2246H73.3223L72.3447 19H70.6152L74.334 8.96484H76.1523L79.8643 19H78.1211ZM76.7197 14.8164L75.7695 12.082C75.7331 11.9635 75.6807 11.7972 75.6123 11.583C75.5439 11.3643 75.4756 11.1432 75.4072 10.9199C75.3389 10.6921 75.2819 10.5007 75.2363 10.3457C75.1908 10.5326 75.1338 10.7422 75.0654 10.9746C75.0016 11.2025 74.9378 11.4167 74.874 11.6172C74.8148 11.8177 74.7692 11.9727 74.7373 12.082L73.7803 14.8164H76.7197ZM84.9023 11.2891C85.8001 11.2891 86.5202 11.6172 87.0625 12.2734C87.6094 12.9297 87.8828 13.9049 87.8828 15.1992C87.8828 16.056 87.7552 16.7783 87.5 17.3662C87.2493 17.9495 86.8962 18.3916 86.4404 18.6924C85.9893 18.9886 85.4629 19.1367 84.8613 19.1367C84.4785 19.1367 84.1458 19.0866 83.8633 18.9863C83.5807 18.8861 83.3392 18.7562 83.1387 18.5967C82.9382 18.4326 82.7695 18.2549 82.6328 18.0635H82.5371C82.5599 18.2458 82.5804 18.4486 82.5986 18.6719C82.6214 18.8906 82.6328 19.0911 82.6328 19.2734V22.3564H81.0195V11.4326H82.332L82.5576 12.4785H82.6328C82.7741 12.2643 82.945 12.0661 83.1455 11.8838C83.3506 11.7015 83.5967 11.5579 83.8838 11.4531C84.1755 11.3438 84.515 11.2891 84.9023 11.2891ZM84.4717 12.6016C84.0296 12.6016 83.6742 12.6904 83.4053 12.8682C83.141 13.0413 82.9473 13.3034 82.8242 13.6543C82.7057 14.0052 82.6419 14.445 82.6328 14.9736V15.1992C82.6328 15.7598 82.6898 16.236 82.8037 16.6279C82.9222 17.0153 83.1159 17.3115 83.3848 17.5166C83.6582 17.7171 84.0273 17.8174 84.4922 17.8174C84.8841 17.8174 85.2077 17.7103 85.4629 17.4961C85.7227 17.2819 85.9163 16.9766 86.0439 16.5801C86.1715 16.1836 86.2354 15.7165 86.2354 15.1787C86.2354 14.363 86.0895 13.7295 85.7979 13.2783C85.5107 12.8271 85.0687 12.6016 84.4717 12.6016ZM93.625 11.2891C94.5228 11.2891 95.2428 11.6172 95.7852 12.2734C96.332 12.9297 96.6055 13.9049 96.6055 15.1992C96.6055 16.056 96.4779 16.7783 96.2227 17.3662C95.972 17.9495 95.6188 18.3916 95.1631 18.6924C94.7119 18.9886 94.1855 19.1367 93.584 19.1367C93.2012 19.1367 92.8685 19.0866 92.5859 18.9863C92.3034 18.8861 92.0618 18.7562 91.8613 18.5967C91.6608 18.4326 91.4922 18.2549 91.3555 18.0635H91.2598C91.2826 18.2458 91.3031 18.4486 91.3213 18.6719C91.3441 18.8906 91.3555 19.0911 91.3555 19.2734V22.3564H89.7422V11.4326H91.0547L91.2803 12.4785H91.3555C91.4967 12.2643 91.6676 12.0661 91.8682 11.8838C92.0732 11.7015 92.3193 11.5579 92.6064 11.4531C92.8981 11.3438 93.2376 11.2891 93.625 11.2891ZM93.1943 12.6016C92.7523 12.6016 92.3968 12.6904 92.1279 12.8682C91.8636 13.0413 91.6699 13.3034 91.5469 13.6543C91.4284 14.0052 91.3646 14.445 91.3555 14.9736V15.1992C91.3555 15.7598 91.4124 16.236 91.5264 16.6279C91.6449 17.0153 91.8385 17.3115 92.1074 17.5166C92.3809 17.7171 92.75 17.8174 93.2148 17.8174C93.6068 17.8174 93.9303 17.7103 94.1855 17.4961C94.4453 17.2819 94.639 16.9766 94.7666 16.5801C94.8942 16.1836 94.958 15.7165 94.958 15.1787C94.958 14.363 94.8122 13.7295 94.5205 13.2783C94.2334 12.8271 93.7913 12.6016 93.1943 12.6016Z" fill="#707070"/>
<path d="M11.875 10.0625C10.5938 8.75 8.84375 8 6.96875 8C3.15625 8 0.03125 11.125 0.03125 14.9375C0.03125 16.1875 0.375 17.375 0.96875 18.4062L0 22L3.65625 21.0625C4.6875 21.5938 5.8125 21.9062 6.96875 21.9062C10.8125 21.9062 14 18.7812 14 14.9688C14 13.0938 13.1875 11.375 11.875 10.0625ZM6.96875 20.7188C5.9375 20.7188 4.9375 20.4375 4.03125 19.9062L3.84375 19.7812L1.65625 20.375L2.25 18.25L2.09375 18.0312C1.53125 17.0938 1.21875 16.0312 1.21875 14.9375C1.21875 11.7812 3.8125 9.1875 7 9.1875C8.53125 9.1875 9.96875 9.78125 11.0625 10.875C12.1562 11.9688 12.8125 13.4062 12.8125 14.9688C12.8125 18.125 10.1562 20.7188 6.96875 20.7188ZM10.1562 16.4062C9.96875 16.3125 9.125 15.9062 8.96875 15.8438C8.8125 15.7812 8.6875 15.75 8.5625 15.9375C8.46875 16.0938 8.125 16.5 8.03125 16.625C7.90625 16.7188 7.8125 16.75 7.65625 16.6562C6.625 16.1562 5.96875 15.75 5.28125 14.5938C5.09375 14.2812 5.46875 14.3125 5.78125 13.6562C5.84375 13.5312 5.8125 13.4375 5.78125 13.3438C5.75 13.25 5.375 12.4062 5.25 12.0625C5.09375 11.7188 4.96875 11.75 4.84375 11.75C4.75 11.75 4.625 11.75 4.53125 11.75C4.40625 11.75 4.21875 11.7812 4.0625 11.9688C3.90625 12.1562 3.46875 12.5625 3.46875 13.4062C3.46875 14.2812 4.0625 15.0938 4.15625 15.2188C4.25 15.3125 5.375 17.0625 7.125 17.8125C8.21875 18.3125 8.65625 18.3438 9.21875 18.25C9.53125 18.2188 10.2188 17.8438 10.375 17.4375C10.5312 17.0312 10.5312 16.6875 10.4688 16.625C10.4375 16.5312 10.3125 16.5 10.1562 16.4062Z" fill="#707070"/>
</svg>
